<svg version="1.1" viewBox="0.0 0.0 960.0 540.0" fill="none" stroke="none" stroke-linecap="square" stroke-miterlimit="10" xmlns:xlink="http://www.w3.org/1999/xlink" xmlns="http://www.w3.org/2000/svg"><clipPath id="p.0"><path d="m0 0l960.0 0l0 540.0l-960.0 0l0 -540.0z" clip-rule="nonzero"/></clipPath><g clip-path="url(#p.0)"><path fill="#202752" d="m0 0l960.0 0l0 540.0l-960.0 0z" fill-rule="evenodd"/><path fill="#49a0d9" d="m414.40945 174.98376l0 0c0 -22.224548 18.01654 -40.24112 40.24112 -40.24112l50.698853 0l0 0c10.672607 0 20.908081 4.239685 28.454773 11.786362c7.546692 7.5466614 11.786377 17.78215 11.786377 28.454758l0 66.00597l0 0c0 22.224533 -18.016602 40.241104 -40.24115 40.241104l-50.698853 0c-22.224579 0 -40.24112 -18.016571 -40.24112 -40.241104z" fill-rule="evenodd"/><path stroke="#49a0d9" stroke-width="1.0" stroke-linejoin="round" stroke-linecap="butt" d="m414.40945 174.98376l0 0c0 -22.224548 18.01654 -40.24112 40.24112 -40.24112l50.698853 0l0 0c10.672607 0 20.908081 4.239685 28.454773 11.786362c7.546692 7.5466614 11.786377 17.78215 11.786377 28.454758l0 66.00597l0 0c0 22.224533 -18.016602 40.241104 -40.24115 40.241104l-50.698853 0c-22.224579 0 -40.24112 -18.016571 -40.24112 -40.241104z" fill-rule="evenodd"/><path fill="#49a0d9" d="m414.40945 250.51312l0 0c0 -25.396393 29.365875 -45.984253 65.590546 -45.984253l0 0c36.22467 0 65.590576 20.58786 65.590576 45.984253l0 0c0 25.396393 -29.365906 45.984253 -65.590576 45.984253l0 0c-36.22467 0 -65.590546 -20.58786 -65.590546 -45.984253z" fill-rule="evenodd"/><path stroke="#49a0d9" stroke-width="1.0" stroke-linejoin="round" stroke-linecap="butt" d="m414.40945 250.51312l0 0c0 -25.396393 29.365875 -45.984253 65.590546 -45.984253l0 0c36.22467 0 65.590576 20.58786 65.590576 45.984253l0 0c0 25.396393 -29.365906 45.984253 -65.590576 45.984253l0 0c-36.22467 0 -65.590546 -20.58786 -65.590546 -45.984253z" fill-rule="evenodd"/><path fill="#202752" d="m469.70078 168.18242l0 0c0 -5.688095 4.6111145 -10.29921 10.299225 -10.29921l0 0l0 0c2.7315063 0 5.351166 1.085083 7.282654 3.0165558c1.9314575 1.931488 3.016571 4.551132 3.016571 7.282654l0 26.047241c0 5.688095 -4.6111145 10.29921 -10.299225 10.29921l0 0l0 0c-5.6881104 0 -10.299225 -4.6111145 -10.299225 -10.29921z" fill-rule="evenodd"/><path stroke="#202752" stroke-width="1.0" stroke-linejoin="round" stroke-linecap="butt" d="m469.70078 168.18242l0 0c0 -5.688095 4.6111145 -10.29921 10.299225 -10.29921l0 0l0 0c2.7315063 0 5.351166 1.085083 7.282654 3.0165558c1.9314575 1.931488 3.016571 4.551132 3.016571 7.282654l0 26.047241c0 5.688095 -4.6111145 10.29921 -10.299225 10.29921l0 0l0 0c-5.6881104 0 -10.299225 -4.6111145 -10.299225 -10.29921z" fill-rule="evenodd"/><path fill="#49a0d9" d="m469.70078 153.29921l0 -28.675194l0 0c0 -15.836876 12.838348 -28.675194 28.675201 -28.675194l36.356323 0l0 -8.192917l16.385803 16.385826l-16.385803 16.385826l0 -8.192909l-36.356323 0l0 0c-6.7872314 0 -12.289368 5.502136 -12.289368 12.289368l0 28.675194z" fill-rule="evenodd"/><path stroke="#49a0d9" stroke-width="1.0" stroke-linejoin="round" stroke-linecap="butt" d="m469.70078 153.29921l0 -28.675194l0 0c0 -15.836876 12.838348 -28.675194 28.675201 -28.675194l36.356323 0l0 -8.192917l16.385803 16.385826l-16.385803 16.385826l0 -8.192909l-36.356323 0l0 0c-6.7872314 0 -12.289368 5.502136 -12.289368 12.289368l0 28.675194z" fill-rule="evenodd"/><path fill="#202752" d="m518.063 81.40945l110.078735 0l0 46.645668l-110.078735 0z" fill-rule="evenodd"/><path stroke="#202752" stroke-width="1.0" stroke-linejoin="round" stroke-linecap="butt" d="m518.063 81.40945l110.078735 0l0 46.645668l-110.078735 0z" fill-rule="evenodd"/><path fill="#000000" fill-opacity="0.0" d="m287.03937 287.91864l385.92126 0l0 135.74802l-385.92126 0z" fill-rule="evenodd"/><path fill="#ffffff" d="m317.47046 389.07864l0 -67.203125l29.1875 0q6.71875 0 11.375 1.96875q4.65625 1.96875 7.046875 5.71875q2.40625 3.734375 2.40625 8.921875q0 5.765625 -2.890625 9.609375q-2.875 3.828125 -8.25 5.265625l-0.09375 -1.90625q4.515625 1.046875 7.828125 3.453125q3.3125 2.390625 5.125 5.953125q1.828125 3.546875 1.828125 8.0625q0 4.984375 -1.625 8.78125q-1.625 3.796875 -4.796875 6.296875q-3.171875 2.484375 -7.453125 3.78125q-4.265625 1.296875 -9.546875 1.296875l-30.140625 0zm13.828125 -12.484375l15.734375 0q3.078125 0 5.234375 -0.90625q2.171875 -0.90625 3.3125 -2.828125q1.15625 -1.921875 1.15625 -4.515625q0 -2.5 -1.25 -4.21875q-1.25 -1.734375 -3.515625 -2.640625q-2.25 -0.921875 -5.40625 -0.921875l-15.265625 0l0 16.03125zm0 -27.453125l13.625 0q2.59375 0 4.515625 -0.953125q1.921875 -0.96875 2.921875 -2.59375q1.015625 -1.640625 1.015625 -3.84375q0 -3.546875 -2.3125 -5.46875q-2.296875 -1.921875 -7.0 -1.921875l-12.765625 0l0 14.78125zm74.402985 40.890625q-7.78125 0 -13.875 -3.40625q-6.09375 -3.40625 -9.609375 -9.359375q-3.5 -5.953125 -3.5 -13.625q0 -7.6875 3.5 -13.640625q3.515625 -5.953125 9.609375 -9.359375q6.09375 -3.40625 13.875 -3.40625q7.671875 0 13.765625 3.40625q6.09375 3.40625 9.546875 9.359375q3.46875 5.953125 3.46875 13.640625q0 7.671875 -3.46875 13.625q-3.453125 5.953125 -9.546875 9.359375q-6.09375 3.40625 -13.765625 3.40625zm0 -11.890625q3.734375 0 6.703125 -1.875q2.984375 -1.875 4.65625 -5.1875q1.6875 -3.3125 1.59375 -7.4375q0.09375 -4.21875 -1.59375 -7.53125q-1.671875 -3.3125 -4.65625 -5.1875q-2.96875 -1.875 -6.703125 -1.875q-3.84375 0 -6.828125 1.921875q-2.96875 1.921875 -4.703125 5.1875q-1.71875 3.265625 -1.625 7.484375q-0.09375 4.125 1.625 7.4375q1.734375 3.3125 4.703125 5.1875q2.984375 1.875 6.828125 1.875zm60.767975 11.890625q-7.78125 0 -13.875 -3.40625q-6.09375 -3.40625 -9.609375 -9.359375q-3.5 -5.953125 -3.5 -13.625q0 -7.6875 3.5 -13.640625q3.515625 -5.953125 9.609375 -9.359375q6.09375 -3.40625 13.875 -3.40625q7.671875 0 13.765625 3.40625q6.09375 3.40625 9.546875 9.359375q3.46875 5.953125 3.46875 13.640625q0 7.671875 -3.46875 13.625q-3.453125 5.953125 -9.546875 9.359375q-6.09375 3.40625 -13.765625 3.40625zm0 -11.890625q3.734375 0 6.703125 -1.875q2.984375 -1.875 4.65625 -5.1875q1.6875 -3.3125 1.59375 -7.4375q0.09375 -4.21875 -1.59375 -7.53125q-1.671875 -3.3125 -4.65625 -5.1875q-2.96875 -1.875 -6.703125 -1.875q-3.84375 0 -6.828125 1.921875q-2.96875 1.921875 -4.703125 5.1875q-1.71875 3.265625 -1.625 7.484375q-0.09375 4.125 1.625 7.4375q1.734375 3.3125 4.703125 5.1875q2.984375 1.875 6.828125 1.875zm50.111694 -4.328125l-4.03125 -11.234375l24.0 -24.28125l17.953125 0l-37.921875 35.515625zm-12.9687195 15.265625l0 -71.046875l13.6405945 0l0 71.046875l-13.6405945 0zm34.37497 0l-18.25 -22.9375l9.609375 -7.6875l25.046875 30.625l-16.40625 0zm45.878723 0.953125q-8.25 0 -14.453125 -3.359375q-6.1875 -3.359375 -9.59375 -9.203125q-3.40625 -5.859375 -3.40625 -13.453125q0 -5.953125 1.921875 -10.84375q1.921875 -4.890625 5.375 -8.484375q3.453125 -3.609375 8.203125 -5.578125q4.765625 -1.96875 10.328125 -1.96875q5.1875 0 9.59375 1.921875q4.421875 1.921875 7.640625 5.328125q3.21875 3.40625 4.9375 8.0625q1.734375 4.65625 1.53125 10.03125l-0.09375 4.21875l-40.796875 0l-2.203125 -8.34375l31.765625 0l-1.53125 1.734375l0 -2.125q-0.1875 -2.59375 -1.6875 -4.65625q-1.484375 -2.0625 -3.78125 -3.25q-2.296875 -1.203125 -5.1875 -1.203125q-4.21875 0 -7.15625 1.640625q-2.921875 1.625 -4.46875 4.796875q-1.53125 3.15625 -1.53125 7.671875q0 4.609375 1.96875 7.96875q1.96875 3.359375 5.5625 5.234375q3.609375 1.859375 8.515625 1.859375q3.359375 0 6.140625 -1.046875q2.78125 -1.0625 5.953125 -3.65625l6.515625 9.125q-2.78125 2.5 -6.140625 4.1875q-3.359375 1.671875 -6.90625 2.53125q-3.546875 0.859375 -7.015625 0.859375zm32.16223 -0.953125l0 -50.78125l13.15625 0l0.484375 16.3125l-2.3125 -3.359375q1.15625 -3.9375 3.75 -7.140625q2.59375 -3.21875 6.09375 -5.046875q3.5 -1.828125 7.34375 -1.828125q1.625 0 3.15625 0.296875q1.546875 0.28125 2.609375 0.671875l-3.65625 14.96875q-1.046875 -0.578125 -2.734375 -1.0q-1.671875 -0.4375 -3.40625 -0.4375q-2.3125 0 -4.28125 0.8125q-1.953125 0.8125 -3.40625 2.3125q-1.4375 1.484375 -2.25 3.5q-0.8125 2.015625 -0.8125 4.421875l0 26.296875l-13.734375 0z" fill-rule="nonzero"/><path fill="#000000" fill-opacity="0.0" d="m322.51968 396.6168l314.9606 0l0 58.17325l-314.9606 0z" fill-rule="evenodd"/><path fill="#ffffff" d="m381.23267 436.3368l0 -22.40625l9.09375 0q1.953125 0 3.375 0.6875q1.421875 0.6875 2.1875 1.953125q0.765625 1.265625 0.765625 3.0q0 1.859375 -1.0625 3.1875q-1.046875 1.328125 -2.875 1.828125l-0.0625 -0.609375q1.5625 0.296875 2.71875 1.109375q1.15625 0.8125 1.8125 2.0q0.65625 1.1875 0.65625 2.65625q0 1.5 -0.515625 2.71875q-0.515625 1.21875 -1.46875 2.09375q-0.9375 0.859375 -2.265625 1.328125q-1.3125 0.453125 -2.953125 0.453125l-9.40625 0zm2.5 -2.4375l6.71875 0q1.4375 0 2.5 -0.484375q1.078125 -0.5 1.671875 -1.421875q0.59375 -0.9375 0.59375 -2.15625q0 -1.140625 -0.625 -2.0q-0.625 -0.875 -1.734375 -1.359375q-1.09375 -0.484375 -2.5625 -0.484375l-6.5625 0l0 7.90625zm0 -10.328125l6.390625 0q1.15625 0 2.046875 -0.46875q0.90625 -0.46875 1.40625 -1.28125q0.515625 -0.8125 0.515625 -1.84375q0 -1.625 -1.109375 -2.609375q-1.09375 -1.0 -3.078125 -1.0l-6.171875 0l0 7.203125zm25.377563 13.078125q-2.5 0 -4.4375 -1.109375q-1.9375 -1.125 -3.046875 -3.109375q-1.09375 -1.984375 -1.09375 -4.515625q0 -2.484375 1.09375 -4.4375q1.109375 -1.953125 3.046875 -3.078125q1.9375 -1.125 4.4375 -1.125q2.453125 0 4.390625 1.125q1.9375 1.125 3.03125 3.078125q1.109375 1.953125 1.109375 4.4375q0 2.53125 -1.109375 4.515625q-1.09375 1.984375 -3.03125 3.109375q-1.9375 1.109375 -4.390625 1.109375zm0 -2.265625q1.75 0 3.125 -0.84375q1.375 -0.84375 2.140625 -2.296875q0.78125 -1.46875 0.78125 -3.328125q0 -1.84375 -0.78125 -3.28125q-0.765625 -1.453125 -2.140625 -2.265625q-1.375 -0.8125 -3.125 -0.8125q-1.765625 0 -3.15625 0.8125q-1.390625 0.8125 -2.1875 2.28125q-0.78125 1.453125 -0.75 3.265625q-0.03125 1.859375 0.75 3.328125q0.796875 1.453125 2.1875 2.296875q1.390625 0.84375 3.15625 0.84375zm19.424042 2.265625q-2.5 0 -4.4375 -1.109375q-1.9375 -1.125 -3.046875 -3.109375q-1.09375 -1.984375 -1.09375 -4.515625q0 -2.484375 1.09375 -4.4375q1.109375 -1.953125 3.046875 -3.078125q1.9375 -1.125 4.4375 -1.125q2.453125 0 4.390625 1.125q1.9375 1.125 3.03125 3.078125q1.109375 1.953125 1.109375 4.4375q0 2.53125 -1.109375 4.515625q-1.09375 1.984375 -3.03125 3.109375q-1.9375 1.109375 -4.390625 1.109375zm0 -2.265625q1.75 0 3.125 -0.84375q1.375 -0.84375 2.140625 -2.296875q0.78125 -1.46875 0.78125 -3.328125q0 -1.84375 -0.78125 -3.28125q-0.765625 -1.453125 -2.140625 -2.265625q-1.375 -0.8125 -3.125 -0.8125q-1.765625 0 -3.15625 0.8125q-1.390625 0.8125 -2.1875 2.28125q-0.78125 1.453125 -0.75 3.265625q-0.03125 1.859375 0.75 3.328125q0.796875 1.453125 2.1875 2.296875q1.390625 0.84375 3.15625 0.84375zm14.174042 -3.421875l-0.09375 -2.78125l8.734375 -8.546875l3.234375 0l-11.875 11.328125zm-2.140625 5.375l0 -23.6875l2.390625 0l0 23.6875l-2.390625 0zm11.453125 0l-7.046875 -8.15625l1.703125 -1.671875l8.46875 9.828125l-3.125 0zm15.347931 0l0 -16.703125l2.40625 0l0 16.703125l-2.40625 0zm1.1875 -20.3125q-0.890625 0 -1.359375 -0.46875q-0.453125 -0.46875 -0.453125 -1.265625q0 -0.796875 0.46875 -1.28125q0.484375 -0.484375 1.34375 -0.484375q0.875 0 1.34375 0.46875q0.484375 0.46875 0.484375 1.296875q0 0.765625 -0.484375 1.25q-0.46875 0.484375 -1.34375 0.484375zm8.772369 20.3125l0 -21.09375l2.40625 0l0 21.09375l-2.40625 0zm-3.78125 -14.40625l0 -2.296875l10.40625 0l0 2.296875l-10.40625 0zm35.08206 21.453125l0 -11.140625l0.5 -0.296875q-0.125 0.90625 -0.71875 1.75q-0.59375 0.84375 -1.484375 1.515625q-0.890625 0.671875 -2.015625 1.0625q-1.125 0.375 -2.296875 0.375q-2.28125 0 -4.078125 -1.109375q-1.78125 -1.125 -2.828125 -3.09375q-1.03125 -1.96875 -1.03125 -4.46875q0 -2.515625 1.03125 -4.484375q1.046875 -1.96875 2.828125 -3.09375q1.796875 -1.125 4.015625 -1.125q1.265625 0 2.40625 0.40625q1.140625 0.40625 2.0625 1.078125q0.9375 0.671875 1.53125 1.546875q0.609375 0.875 0.75 1.84375l-0.765625 -0.203125l0.09375 -4.34375l2.390625 0l0 23.78125l-2.390625 0zm-5.734375 -9.03125q1.671875 0 3.0 -0.8125q1.328125 -0.8125 2.09375 -2.25q0.765625 -1.453125 0.765625 -3.34375q0 -1.84375 -0.765625 -3.28125q-0.765625 -1.453125 -2.078125 -2.28125q-1.3125 -0.828125 -3.015625 -0.828125q-1.6875 0 -3.0 0.828125q-1.3125 0.828125 -2.078125 2.28125q-0.75 1.4375 -0.75 3.28125q0 1.828125 0.734375 3.296875q0.75 1.453125 2.046875 2.28125q1.3125 0.828125 3.046875 0.828125zm18.715057 2.296875q-1.90625 0 -3.234375 -0.78125q-1.328125 -0.78125 -2.03125 -2.28125q-0.6875 -1.5 -0.6875 -3.75l0 -10.203125l2.4375 0l0 9.734375q0 1.6875 0.453125 2.828125q0.46875 1.125 1.40625 1.703125q0.953125 0.578125 2.328125 0.578125q1.0625 0 1.953125 -0.359375q0.90625 -0.375 1.578125 -1.015625q0.671875 -0.640625 1.046875 -1.5q0.390625 -0.859375 0.390625 -1.828125l0 -10.140625l2.390625 0l0 16.703125l-2.359375 0l-0.09375 -3.515625l0.375 -0.203125q-0.375 1.125 -1.28125 2.046875q-0.890625 0.90625 -2.125 1.453125q-1.234375 0.53125 -2.546875 0.53125zm13.342773 -0.3125l0 -16.703125l2.40625 0l0 16.703125l-2.40625 0zm1.1875 -20.3125q-0.890625 0 -1.359375 -0.46875q-0.453125 -0.46875 -0.453125 -1.265625q0 -0.796875 0.46875 -1.28125q0.484375 -0.484375 1.34375 -0.484375q0.875 0 1.34375 0.46875q0.484375 0.46875 0.484375 1.296875q0 0.765625 -0.484375 1.25q-0.46875 0.484375 -1.34375 0.484375zm13.506775 20.625q-2.359375 0 -4.21875 -1.125q-1.859375 -1.140625 -2.9375 -3.109375q-1.0625 -1.96875 -1.0625 -4.46875q0 -2.484375 1.0625 -4.453125q1.078125 -1.96875 2.9375 -3.09375q1.859375 -1.125 4.25 -1.125q2.140625 0 3.90625 0.859375q1.765625 0.84375 2.8125 2.34375l-1.40625 1.734375q-0.609375 -0.796875 -1.453125 -1.40625q-0.84375 -0.609375 -1.828125 -0.9375q-0.96875 -0.34375 -1.9375 -0.34375q-1.6875 0 -3.03125 0.84375q-1.34375 0.84375 -2.140625 2.296875q-0.78125 1.4375 -0.78125 3.28125q0 1.859375 0.78125 3.328125q0.796875 1.453125 2.140625 2.28125q1.34375 0.828125 3.0 0.828125q0.96875 0 1.890625 -0.296875q0.921875 -0.3125 1.75 -0.890625q0.84375 -0.578125 1.546875 -1.4375l1.40625 1.734375q-1.09375 1.4375 -2.921875 2.296875q-1.8125 0.859375 -3.765625 0.859375zm11.941406 -5.6875l-0.09375 -2.78125l8.734375 -8.546875l3.234375 0l-11.875 11.328125zm-2.140625 5.375l0 -23.6875l2.390625 0l0 23.6875l-2.390625 0zm11.453125 0l-7.046875 -8.15625l1.703125 -1.671875l8.46875 9.828125l-3.125 0zm6.6535034 -7.71875q-0.21875 -2.015625 -0.359375 -4.171875q-0.125 -2.15625 -0.1875 -4.265625q-0.0625 -2.109375 -0.0625 -4.0l0 -2.25l2.59375 0l0 2.25q0 1.984375 -0.0625 4.15625q-0.0625 2.171875 -0.21875 4.3125q-0.140625 2.125 -0.359375 3.96875l-1.34375 0zm0.578125 8.03125q-0.875 0 -1.34375 -0.5q-0.453125 -0.515625 -0.453125 -1.46875q0 -0.875 0.5 -1.421875q0.5 -0.5625 1.296875 -0.5625q0.859375 0 1.3125 0.53125q0.46875 0.515625 0.46875 1.453125q0 0.890625 -0.5 1.4375q-0.484375 0.53125 -1.28125 0.53125z" fill-rule="nonzero"/></g></svg>